<?xml version="1.0" standalone="no"?><!DOCTYPE svg PUBLIC "-//W3C//DTD SVG 1.1//EN" "http://www.w3.org/Graphics/SVG/1.1/DTD/svg11.dtd"><svg width="100%" height="100%" viewBox="0 0 24 24" version="1.1" xmlns="http://www.w3.org/2000/svg" xmlns:xlink="http://www.w3.org/1999/xlink" xml:space="preserve" style="fill-rule:evenodd;clip-rule:evenodd;stroke-linejoin:round;stroke-miterlimit:1.41421;"><rect x="0" y="0" width="24" height="24" style="fill:#393939;"/><path d="M18.182,15.224l-12.364,0l-2.367,-7.255l6.183,3.576l2.366,-5.545l2.366,5.545l6.183,-3.576l-2.367,7.255ZM6.827,11.302c0.496,0 0.899,0.402 0.899,0.899c0,0.496 -0.403,0.899 -0.899,0.899c-0.497,0 -0.899,-0.403 -0.899,-0.899c0,-0.497 0.402,-0.899 0.899,-0.899ZM17.173,11.302c-0.496,0 -0.899,0.402 -0.899,0.899c0,0.496 0.403,0.899 0.899,0.899c0.497,0 0.899,-0.403 0.899,-0.899c0,-0.497 -0.402,-0.899 -0.899,-0.899ZM12,9.461c0.496,0 0.899,0.402 0.899,0.899c0,0.496 -0.403,0.899 -0.899,0.899c-0.496,0 -0.899,-0.403 -0.899,-0.899c0,-0.497 0.403,-0.899 0.899,-0.899Z" style="fill:#fff;"/><rect x="5.961" y="16.229" width="12.078" height="1.771" style="fill:#fff;"/></svg>