<?xml version="1.0" standalone="no"?><!DOCTYPE svg PUBLIC "-//W3C//DTD SVG 1.1//EN" "http://www.w3.org/Graphics/SVG/1.1/DTD/svg11.dtd"><svg width="100%" height="100%" viewBox="0 0 24 24" version="1.1" xmlns="http://www.w3.org/2000/svg" xmlns:xlink="http://www.w3.org/1999/xlink" xml:space="preserve" style="fill-rule:evenodd;clip-rule:evenodd;stroke-linejoin:round;stroke-miterlimit:1.41421;"><rect x="0" y="0" width="24" height="24" style="fill:#393939;"/><path id="Layer1" d="M10.435,13.278c0,-1.166 0.608,-2.248 1.605,-2.853c0.846,-0.513 1.825,-1.107 2.404,-1.458c0.313,-0.19 0.504,-0.53 0.504,-0.897c0,-0.323 -0.261,-0.584 -0.583,-0.584c-0.853,0 -2.474,0 -3.722,0c-0.449,0 -0.881,0.179 -1.199,0.497c-0.318,0.318 -0.497,0.749 -0.497,1.199l-2.635,-0.417l0,-0.731c0,-1.843 0.94,-2.765 2.818,-2.765l5.322,0c2.157,0 3.236,0.835 3.236,2.504c0,0 0,0.322 0,0.715c0,0.882 -0.469,1.698 -1.231,2.142c-0.882,0.514 -2.033,1.185 -2.727,1.589c-0.376,0.22 -0.608,0.623 -0.608,1.059l-2.687,0l0,0ZM13.122,15c0.417,0 0.626,0.296 0.626,0.887l0,1.957c0,0.435 -0.065,0.692 -0.196,0.77c-0.13,0.078 -0.421,0.117 -0.874,0.117l-2.296,0c-0.434,0 -0.652,-0.295 -0.652,-0.887l0,-1.957c0,-0.434 0.078,-0.695 0.235,-0.782c0.104,-0.07 0.383,-0.105 0.835,-0.105l2.322,0Z" style="fill:#fff;fill-rule:nonzero;"/></svg>