<?xml version="1.0" standalone="no"?><!DOCTYPE svg PUBLIC "-//W3C//DTD SVG 1.1//EN" "http://www.w3.org/Graphics/SVG/1.1/DTD/svg11.dtd"><svg width="100%" height="100%" viewBox="0 0 24 24" version="1.1" xmlns="http://www.w3.org/2000/svg" xmlns:xlink="http://www.w3.org/1999/xlink" xml:space="preserve" style="fill-rule:evenodd;clip-rule:evenodd;stroke-linejoin:round;stroke-miterlimit:1.41421;"><rect x="0" y="0" width="24" height="24" style="fill:#393939;"/><path d="M12.15,4.716c1.862,0 3.237,0.623 4.125,1.87c0.351,0.704 0.527,1.327 0.527,1.871l0,0.683c0,0.736 -0.308,1.435 -0.923,2.099l0.06,0.911l0,0.06c0,0.344 -0.076,0.667 -0.228,0.971l0.048,0c0.975,-0.408 1.463,-0.807 1.463,-1.199c0.272,-0.368 0.515,-0.552 0.731,-0.552l0.072,0c0.384,0 0.576,0.4 0.576,1.199c0.431,0.344 0.647,0.628 0.647,0.852l0,0.228c-0.16,0.295 -0.431,0.443 -0.815,0.443l-0.816,-0.072c-1.51,0.704 -2.454,1.187 -2.829,1.451l0,0.18l2.134,0.971l0.636,-0.12c0.583,0.112 0.875,0.312 0.875,0.6c0,0.248 -0.232,0.571 -0.696,0.971c0,0.767 -0.199,1.151 -0.599,1.151l-0.048,0c-0.312,0 -0.68,-0.384 -1.103,-1.151l-1.727,-0.899c-0.463,0.639 -1.219,0.959 -2.266,0.959c-1.071,0 -1.823,-0.32 -2.254,-0.959c-1.279,0.639 -1.919,1.039 -1.919,1.199c-0.303,0.567 -0.591,0.851 -0.863,0.851l-0.132,0c-0.336,0 -0.503,-0.364 -0.503,-1.091c-0.464,-0.432 -0.696,-0.795 -0.696,-1.091c0,-0.28 0.272,-0.46 0.815,-0.54l0.696,0.12l2.074,-0.971l0,-0.18l-2.77,-1.451l-0.995,0.072c-0.415,0 -0.647,-0.18 -0.695,-0.539l0,-0.132c0,-0.176 0.216,-0.48 0.647,-0.911c0.024,-0.728 0.156,-1.092 0.396,-1.092l0.3,0c0.288,0 0.615,0.364 0.983,1.092l1.211,0.611l0,-0.06l-0.228,-0.851l0.108,-0.899c-0.647,-0.728 -0.971,-1.791 -0.971,-3.19c0.208,-1.495 1.115,-2.558 2.722,-3.189c0.623,-0.184 1.367,-0.276 2.23,-0.276ZM7.594,8.529c0,0.767 0.211,1.531 0.635,2.29l0.06,0l0,-0.779c-0.184,-0.728 -0.276,-1.271 -0.276,-1.631c0.064,-0.328 0.136,-0.492 0.216,-0.492l0.12,0l0.168,0.18l-0.12,0.432l0.3,1.391l0,0.659l-0.18,1.631l0,0.12c0,0.607 0.467,1.011 1.403,1.211c0.415,0.359 0.623,0.683 0.623,0.971l0,0.24l0.923,0.12l0.816,0l1.163,-0.252c0,-0.608 0.595,-1.127 1.786,-1.559c0.2,-0.232 0.3,-0.591 0.3,-1.079l-0.24,-1.823l0.312,-1.522l0,-0.18l-0.12,-0.408l0.276,-0.204c0.152,0.072 0.228,0.22 0.228,0.444l0,0.48l-0.276,1.69l0.048,0.24c0.432,-0.536 0.647,-1.099 0.647,-1.691l0,-0.419c0,-1.367 -0.679,-2.378 -2.038,-3.034c-0.783,-0.272 -1.515,-0.407 -2.194,-0.407l-0.348,0c-2.062,0 -3.413,0.783 -4.053,2.35c-0.119,0.383 -0.179,0.727 -0.179,1.031ZM10.963,10.1c0.344,0.103 0.475,0.387 0.396,0.851c-0.352,1.039 -0.816,1.543 -1.391,1.511c-0.472,0 -0.816,-0.504 -1.032,-1.511c0,-0.568 0.676,-0.851 2.027,-0.851ZM13.157,10.1c1.239,0.063 1.875,0.359 1.907,0.887c-0.224,0.983 -0.628,1.475 -1.211,1.475c-0.4,0 -0.804,-0.504 -1.212,-1.511c-0.016,-0.552 0.156,-0.835 0.516,-0.851ZM14.788,14.932l0.048,0c1.71,-0.848 2.638,-1.271 2.781,-1.271l0.936,0.048c0.192,-0.048 0.287,-0.104 0.287,-0.168c-0.423,-0.48 -0.635,-0.84 -0.635,-1.079c-0.048,-0.416 -0.132,-0.624 -0.252,-0.624c-0.168,0.064 -0.411,0.428 -0.731,1.091c-1.511,0.728 -2.266,1.155 -2.266,1.283l-0.168,0.72ZM5.903,11.922c-0.104,0.719 -0.196,1.079 -0.276,1.079c-0.32,0.24 -0.479,0.444 -0.479,0.612l0.419,0.096l0.875,-0.048c0.384,0.12 1.307,0.567 2.77,1.343l0,-0.132c0,-0.608 -0.308,-0.996 -0.923,-1.163c-1.231,-0.536 -1.847,-1.016 -1.847,-1.439c-0.151,-0.232 -0.331,-0.348 -0.539,-0.348ZM11.814,12.054l0.12,0.06l0,1.547l-0.468,0.491c-0.231,-0.08 -0.347,-0.303 -0.347,-0.671c0,-0.68 0.232,-1.155 0.695,-1.427ZM12.246,12.018c0.423,0.344 0.635,0.875 0.635,1.595c0,0.303 -0.124,0.483 -0.371,0.539l-0.444,-0.491l0,-1.571l0.18,-0.072ZM9.62,15.771c0.28,1.295 1.071,1.942 2.374,1.942c1.319,-0.096 2.11,-0.763 2.374,-2.002c-0.04,-0.44 0.04,-1.063 0.24,-1.87c-0.216,0.247 -0.408,0.935 -0.576,2.062c-0.463,0.479 -1.047,0.719 -1.75,0.719l-0.516,0c-1.159,-0.144 -1.774,-0.507 -1.846,-1.091c-0.048,-0.607 -0.208,-1.171 -0.48,-1.69c0.176,0.775 0.236,1.418 0.18,1.93ZM9.788,14.08c0.12,0.24 0.256,0.804 0.407,1.691l0.06,0l0,-0.899c-0.056,-0.408 -0.211,-0.672 -0.467,-0.792ZM13.745,14.872l0,0.899c0.088,0 0.143,-0.256 0.167,-0.767l0.228,-0.852c-0.08,0 -0.192,0.216 -0.335,0.648l-0.06,0.072ZM10.495,14.932l0,0.431l0.168,0.048l0,-0.431l-0.168,-0.048ZM13.325,14.932l0,0.479l0.24,-0.096l0,-0.455l-0.24,0.072ZM10.843,15.004l0,0.479l0.228,0.048l0,-0.467l-0.228,-0.06ZM12.929,15.064l0,0.467l0.252,-0.072l-0.024,-0.455l-0.228,0.06ZM12.51,15.064l0,0.587l0.215,-0.024l-0.036,-0.563l-0.179,0ZM11.646,15.111l0,0.54l0.288,0l0,-0.54l-0.288,0ZM12.114,15.111l0,0.54l0.228,0l0,-0.54l-0.228,0ZM10.843,15.711l0,0.492l0.228,0.048l0,-0.48l-0.228,-0.06ZM12.114,15.903l0,0.479l0.228,0l0,-0.539l-0.228,0.06ZM11.646,15.903l0,0.479l0.288,0l0,-0.479l-0.288,0ZM7.198,17.102l-1.043,-0.048l-0.06,0.048l0,0.192c0.415,0.367 0.623,0.707 0.623,1.019c0.04,0.36 0.1,0.539 0.18,0.539c0.12,0 0.392,-0.335 0.815,-1.007c0.944,-0.503 1.519,-0.851 1.727,-1.043c-0.112,-0.24 -0.168,-0.456 -0.168,-0.647c-1.135,0.631 -1.826,0.947 -2.074,0.947ZM14.716,16.203l-0.156,0.671c1.383,0.672 2.074,1.151 2.074,1.439c0,0.096 0.152,0.276 0.456,0.539c0.128,0 0.228,-0.335 0.3,-1.007l0.563,-0.611c-0.032,-0.12 -0.144,-0.18 -0.336,-0.18l-0.863,0.048l-2.038,-0.899ZM11.227,15.111l-0.036,0.48l0.275,0.06l0,-0.54l-0.239,0ZM11.239,15.831l0,0.48l0.227,0.059l0,-0.479l-0.227,-0.06ZM10.435,15.579l0,0.468l0.228,0.072l0,-0.492l-0.228,-0.048ZM12.534,15.867l0,0.491l0.239,-0.059l0,-0.492l-0.239,0.06ZM12.917,15.771l0,0.48l0.228,-0.048l0,-0.492l-0.228,0.06ZM13.325,15.615l0,0.492l0.24,-0.072l0,-0.48l-0.24,0.06Z" style="fill:#fff;fill-rule:nonzero;"/></svg>